<?xml version="1.0" encoding="UTF-8"?>
<svg width="25px" height="20px" viewBox="0 0 25 20" version="1.1" xmlns="http://www.w3.org/2000/svg" xmlns:xlink="http://www.w3.org/1999/xlink">
    <title>hamburger_menu_icon</title>
    <g id="Page-1" stroke="none" stroke-width="1" fill="none" fill-rule="evenodd">
        <g id="hamburger_menu_icon" fill="#FFFFFF" fill-rule="nonzero">
            <path d="M0,2 C0,0.8954305 0.889763236,0 2.00359486,0 L22.9964051,0 C24.10296,0 25,0.88772964 25,2 C25,3.1045695 24.1102368,4 22.9964051,4 L2.00359486,4 C0.897039974,4 0,3.11227036 0,2 L0,2 Z M0,10 C0,8.8954305 0.889763236,8 2.00359486,8 L22.9964051,8 C24.10296,8 25,8.8877296 25,10 C25,11.1045695 24.1102368,12 22.9964051,12 L2.00359486,12 C0.897039974,12 0,11.1122704 0,10 L0,10 Z M0,18 C0,16.8954305 0.889763236,16 2.00359486,16 L22.9964051,16 C24.10296,16 25,16.8877296 25,18 C25,19.1045695 24.1102368,20 22.9964051,20 L2.00359486,20 C0.897039974,20 0,19.1122704 0,18 L0,18 Z" id="Hamburger"></path>
        </g>
    </g>
</svg>